<svg xmlns="http://www.w3.org/2000/svg" xmlns:xlink="http://www.w3.org/1999/xlink"><symbol viewBox="0 0 1792 1792" id="bars" xmlns="http://www.w3.org/2000/svg"><path d="M1664 1344v128q0 26-19 45t-45 19H192q-26 0-45-19t-19-45v-128q0-26 19-45t45-19h1408q26 0 45 19t19 45zm0-512v128q0 26-19 45t-45 19H192q-26 0-45-19t-19-45V832q0-26 19-45t45-19h1408q26 0 45 19t19 45zm0-512v128q0 26-19 45t-45 19H192q-26 0-45-19t-19-45V320q0-26 19-45t45-19h1408q26 0 45 19t19 45z"/></symbol><symbol viewBox="0 0 1792 1792" id="bell" xmlns="http://www.w3.org/2000/svg"><path d="M912 1696q0-16-16-16-59 0-101.5-42.5T752 1536q0-16-16-16t-16 16q0 73 51.5 124.5T896 1712q16 0 16-16zm816-288q0 52-38 90t-90 38h-448q0 106-75 181t-181 75-181-75-75-181H192q-52 0-90-38t-38-90q50-42 91-88t85-119.5 74.5-158.5 50-206T384 576q0-152 117-282.5T808 135q-8-19-8-39 0-40 28-68t68-28 68 28 28 68q0 20-8 39 190 28 307 158.5T1408 576q0 139 19.5 260t50 206 74.5 158.5 85 119.5 91 88z"/></symbol><symbol viewBox="0 0 1792 1792" id="calendar" xmlns="http://www.w3.org/2000/svg"><path d="M2.286 29.714h5.143v-5.143H2.286v5.143zm6.285 0h5.714v-5.143H8.571v5.143zm-6.285-6.285h5.143v-5.714H2.286v5.714zm6.285 0h5.714v-5.714H8.571v5.714zm-6.285-6.858h5.143v-5.143H2.286v5.143zm13.143 13.143h5.714v-5.143h-5.714v5.143zM8.571 16.571h5.714v-5.143H8.571v5.143zm13.715 13.143h5.143v-5.143h-5.143v5.143zm-6.857-6.285h5.714v-5.714h-5.714v5.714zM9.143 8V2.857q0-.232-.17-.402t-.402-.17H7.428q-.232 0-.402.17t-.17.402V8q0 .232.17.402t.402.17h1.143q.232 0 .402-.17T9.143 8zm13.143 15.429h5.143v-5.714h-5.143v5.714zm-6.857-6.858h5.714v-5.143h-5.714v5.143zm6.857 0h5.143v-5.143h-5.143v5.143zM22.857 8V2.857q0-.232-.17-.402t-.402-.17h-1.143q-.232 0-.402.17t-.17.402V8q0 .232.17.402t.402.17h1.143q.232 0 .402-.17t.17-.402zm6.857-1.143v22.857q0 .929-.679 1.607T27.428 32H2.285q-.929 0-1.607-.679t-.679-1.607V6.857q0-.929.679-1.607t1.607-.679h2.286V2.857q0-1.179.839-2.018T7.428 0h1.143q1.179 0 2.018.839t.839 2.018v1.714h6.857V2.857q0-1.179.839-2.018T21.142 0h1.143q1.179 0 2.018.839t.839 2.018v1.714h2.286q.929 0 1.607.679t.679 1.607z"/></symbol><symbol viewBox="0 0 1792 1792" id="check" xmlns="http://www.w3.org/2000/svg"><path d="M1671 566q0 40-28 68l-724 724-136 136q-28 28-68 28t-68-28l-136-136-362-362q-28-28-28-68t28-68l136-136q28-28 68-28t68 28l294 295 656-657q28-28 68-28t68 28l136 136q28 28 28 68z"/></symbol><symbol viewBox="0 0 1792 1792" id="chevron-down" xmlns="http://www.w3.org/2000/svg"><path d="M1683 808l-742 741q-19 19-45 19t-45-19L109 808q-19-19-19-45.5t19-45.5l166-165q19-19 45-19t45 19l531 531 531-531q19-19 45-19t45 19l166 165q19 19 19 45.5t-19 45.5z"/></symbol><symbol viewBox="0 0 1792 1792" id="chevron-left" xmlns="http://www.w3.org/2000/svg"><path d="M1427 301L896 832l531 531q19 19 19 45t-19 45l-166 166q-19 19-45 19t-45-19L429 877q-19-19-19-45t19-45l742-742q19-19 45-19t45 19l166 166q19 19 19 45t-19 45z"/></symbol><symbol viewBox="0 0 1792 1792" id="chevron-right" xmlns="http://www.w3.org/2000/svg"><path d="M1363 877l-742 742q-19 19-45 19t-45-19l-166-166q-19-19-19-45t19-45l531-531-531-531q-19-19-19-45t19-45L531 45q19-19 45-19t45 19l742 742q19 19 19 45t-19 45z"/></symbol><symbol viewBox="0 0 1792 1792" id="chevron-up" xmlns="http://www.w3.org/2000/svg"><path d="M1683 1331l-166 165q-19 19-45 19t-45-19L896 965l-531 531q-19 19-45 19t-45-19l-166-165q-19-19-19-45.5t19-45.5l742-741q19-19 45-19t45 19l742 741q19 19 19 45.5t-19 45.5z"/></symbol><symbol viewBox="0 0 1792 1792" id="exclamation" xmlns="http://www.w3.org/2000/svg"><path d="M1088 1248v224q0 26-19 45t-45 19H768q-26 0-45-19t-19-45v-224q0-26 19-45t45-19h256q26 0 45 19t19 45zm30-1056l-28 768q-1 26-20.5 45t-45.5 19H768q-26 0-45.5-19T702 960l-28-768q-1-26 17.5-45t44.5-19h320q26 0 44.5 19t17.5 45z"/></symbol><symbol viewBox="0 0 1792 1792" id="question" xmlns="http://www.w3.org/2000/svg"><path d="M1088 1256v240q0 16-12 28t-28 12H808q-16 0-28-12t-12-28v-240q0-16 12-28t28-12h240q16 0 28 12t12 28zm316-600q0 54-15.5 101t-35 76.5-55 59.5-57.5 43.5-61 35.5q-41 23-68.5 65t-27.5 67q0 17-12 32.5t-28 15.5H804q-15 0-25.5-18.5T768 1096v-45q0-83 65-156.5T976 786q59-27 84-56t25-76q0-42-46.5-74T931 548q-65 0-108 29-35 25-107 115-13 16-31 16-12 0-25-8L496 575q-13-10-15.5-25t5.5-28q160-266 464-266 80 0 161 31t146 83 106 127.5 41 158.5z"/></symbol><symbol viewBox="0 0 432 53" id="quicken-loans-logo" xmlns="http://www.w3.org/2000/svg"><g fill="#B5121B"><path d="M1.9 23C-.4 35 4.7 45.6 17.6 45.6c1.9 0 3.8-.2 5.8-.7.3 6 3.4 8.1 9.4 8.1l5.4-.3 2-10.1c-1.2.3-2.4.5-3.6.5-1.6 0-3.9-.3-3.8-2.3 6.5-3.7 10.3-11.2 11.6-17.8 2.5-13-2.9-23-16.6-23-6.5 0-12 1.8-17.2 6.8C5.7 11.3 3 17.2 1.9 23m18.9 12.6c-6.9 0-5.1-8-4.1-12.9.9-4.8 2.3-12.7 8.9-12.7 3.3 0 4.5 2 4.7 4.9.1 2.6-.4 6.3-.9 8.9-.9 4.7-2.3 11.8-8.6 11.8m42 9.4l1-5.4h-.1c-2.2 4.3-6.9 6-11.1 6-2.7 0-5.2-.6-6.9-2.5-1.9-2.3-1.6-5.2-1-8.3L49.2 12H62l-3.9 19.9c-.4 2.1-.9 4.4 2 4.4 1.3 0 2.6-.7 3.4-1.9.8-1.1 1.1-2.3 1.3-3.5l3.7-19h12.8L74.9 45H62.8zM98.2 8.7H85.4L87.1 0h12.8l-1.7 8.7zm-7 36.3H78.4l6.4-33h12.8l-6.4 33zm37.6-12.4c-2.8 8.5-9.8 13.1-18.2 13.1-4.8 0-8.4-1.1-11.2-4.5-2.7-3.4-3.4-7.8-2.5-12.5 1.9-9.9 10.2-17.2 20.3-17.2 8.1 0 13.7 4.8 13 13l-11.5 1v-.3c0-2.3 0-4.8-2.9-4.8-4.1 0-5.1 5.4-5.7 8.3-.6 3.1-1.5 8.1 2.7 8.1 2.8 0 4.3-2.5 5.1-4.9l10.9.7zm28.9-9.2l6.9 21.6h-13.4l-3.6-13.2-4 4.1-1.8 9.1H129L137.6.7h12.8l-4.6 23.9 3.4-3.7 9.5-8.9h11.1"/><path d="M187.8 33.1c-1.1 2.8-2.9 4-5.8 4-3.9 0-4.7-2.6-3.8-6.1h22.1l.3-1.7c2.1-10.8-3.2-17.9-14.2-17.9-4.7 0-10.1 1.6-14.1 5.1-3.7 3.2-6.4 8-7.3 12.4-.9 4.7.1 9.2 3 12.4 3.1 3.3 7.6 4.3 12.4 4.3 7.8 0 15.6-3.7 19.2-11.7l-11.8-.8zm-8.4-8.5c.5-3 2.3-5.6 5.7-5.6 3.6 0 4.2 2.4 3.6 5.6h-9.3zM219.1 12l-.9 4.6h.1c2.3-3.7 6.4-5.3 10.4-5.3 3.1 0 6.5.9 7.9 3.5 1.5 2.7.8 6.5.1 9.9L232.8 45H220l4-20c.4-2 .9-4.8-1.8-4.8-3.6 0-4.5 3-5 5.7l-3.7 19h-12.8l6.4-32.9h12zm56.7 33.2h-31.1L253.3.7H267l-6.5 33.6h17.4m23.2-22.9c-10.4 0-19.5 6.9-21.6 17.5-1.9 10 4.8 16.9 14.9 16.9 10.1 0 19.5-6.9 21.5-16.9 2-10.6-4.4-17.5-14.8-17.5m-1.6 8.1c4.4 0 3.4 5.8 2.7 8.9-1.7 8.8-4 9.5-6.3 9.5s-4.4-.6-2.6-9.5c.6-3.1 1.8-8.9 6.2-8.9M349 45.2c-.5-2.3-.1-4.8.4-7.3l2.2-11.6c.9-4.7 2.3-9-1.5-12-2.8-2.3-7.7-2.9-11.6-2.9-7.4 0-15.7 2.1-19.3 10.4l11.6 1.1c.9-2.8 3.2-3.7 5.8-3.7 3.1 0 3.7 1.2 3.1 4.1l-.1.3c-4.4.3-9 .8-13.4 2.1-4.9 1.4-9.6 4.9-10.7 10.1-1.3 6.6 3.5 10 9.6 10 4.5 0 8.5-1.4 11.8-5.3-.3 1.6-.5 3.1-.4 4.6H349zm-10.6-14.9c-.7 3.6-1.6 7.7-6.4 7.7-2 0-3.2-.9-2.8-3 .8-4 6.2-5 9.3-5.3l-.1.6zm32.7-18.1l-.9 4.7h.1c2.3-3.8 6.4-5.3 10.4-5.3 3.1 0 6.5.9 8 3.4 1.5 2.7.8 6.5.1 9.9l-4 20.4H372l3.9-20.1c.4-2 .9-4.8-1.8-4.8-3.5 0-4.5 3-5 5.7l-3.7 19.1h-12.8l6.4-33.1h12.1zm27.4 22.2c.1 3.2 3.6 3.6 6.4 3.6 1.3 0 4.9-.1 5.3-2.1.3-1.7-4-2-5.2-2.1-6.7-1-14.7-2.3-13-11.1.7-3.8 3.3-6.7 6.8-8.7 3.6-2 7.4-2.5 11.1-2.5 6.2 0 12.3 2.4 13.3 8.6L413.1 22c-.5-2.3-2.9-2.9-5.2-2.9-1 0-4.2.3-4.5 1.7-.2 1 .8 1.5 1.6 1.7 1.3.4 3.9.6 5.4.8 2.9.4 6.2.8 8.5 2.5 2.7 1.9 3.7 4.9 3 8.4-1.8 9.1-11.9 11.7-19.4 11.7-7.4 0-13.7-2.4-14.7-10.1l10.7-1.4zm28.9-22.2c.5 0 1.2.1 1.2-.5 0-.5-.4-.5-.8-.5h-.9v1h.5zm1.7 2.1h-.6l-1-1.6h-.6v1.6h-.5v-3.5h1.6c.3 0 .6 0 .9.2.3.2.4.5.4.8 0 .7-.5.9-1.1 1l.9 1.5zm-4.2-1.8c0 1.4 1.2 2.5 2.6 2.5 1.4 0 2.6-1.1 2.6-2.5s-1.2-2.5-2.6-2.5c-1.5 0-2.6 1.1-2.6 2.5m-.6 0c0-1.7 1.4-3.1 3.2-3.1 1.8 0 3.2 1.4 3.2 3.1 0 1.7-1.4 3.1-3.2 3.1-1.8 0-3.2-1.4-3.2-3.1"/></g></symbol><symbol viewBox="0 0 1792 1792" id="times" xmlns="http://www.w3.org/2000/svg"><path d="M1490 1322q0 40-28 68l-136 136q-28 28-68 28t-68-28l-294-294-294 294q-28 28-68 28t-68-28l-136-136q-28-28-28-68t28-68l294-294-294-294q-28-28-28-68t28-68l136-136q28-28 68-28t68 28l294 294 294-294q28-28 68-28t68 28l136 136q28 28 28 68t-28 68l-294 294 294 294q28 28 28 68z"/></symbol></svg>